<?xml version="1.0" encoding="UTF-8" standalone="no"?>
<!-- Created with Inkscape (http://www.inkscape.org/) -->

<svg
   xmlns:dc="http://purl.org/dc/elements/1.1/"
   xmlns:cc="http://creativecommons.org/ns#"
   xmlns:rdf="http://www.w3.org/1999/02/22-rdf-syntax-ns#"
   xmlns:svg="http://www.w3.org/2000/svg"
   xmlns="http://www.w3.org/2000/svg"
   xmlns:sodipodi="http://sodipodi.sourceforge.net/DTD/sodipodi-0.dtd"
   xmlns:inkscape="http://www.inkscape.org/namespaces/inkscape"
   width="340"
   height="768"
   viewBox="0 0 340 768.00001"
   id="svg2"
   version="1.1"
   inkscape:version="0.48.4 r9939"
   sodipodi:docname="avatar_female.svg"
   inkscape:export-filename="C:\Users\Bianka\Desktop\headfull.png"
   inkscape:export-xdpi="90"
   inkscape:export-ydpi="90">
  <defs
     id="defs4" />
  <sodipodi:namedview
     id="base"
     pagecolor="#ffffff"
     bordercolor="#666666"
     borderopacity="1.0"
     inkscape:pageopacity="0.0"
     inkscape:pageshadow="2"
     inkscape:zoom="1.4"
     inkscape:cx="55.253275"
     inkscape:cy="515.49685"
     inkscape:document-units="px"
     inkscape:current-layer="layer9"
     showgrid="false"
     inkscape:window-width="1440"
     inkscape:window-height="837"
     inkscape:window-x="-8"
     inkscape:window-y="-8"
     inkscape:window-maximized="1"
     showguides="true"
     inkscape:snap-text-baseline="true"
     inkscape:snap-to-guides="true"
     inkscape:guide-bbox="true"
     inkscape:snap-page="false"
     inkscape:snap-grids="true"
     units="px"
     inkscape:snap-global="false">
    <sodipodi:guide
       position="701.4286,1618.5715"
       orientation="0,1"
       id="guide4199" />
    <sodipodi:guide
       position="770.00003,1432.8572"
       orientation="0,1"
       id="guide4201" />
    <sodipodi:guide
       position="890.00004,1764.2858"
       orientation="0,1"
       id="guide4203" />
    <sodipodi:guide
       position="178.21429,415.71429"
       orientation="0,1"
       id="guide4205" />
    <sodipodi:guide
       position="1098.5715,1804.2858"
       orientation="1,0"
       id="guide4207" />
    <inkscape:grid
       type="xygrid"
       id="grid3000" />
  </sodipodi:namedview>
  <metadata
     id="metadata7">
    <rdf:RDF>
      <cc:Work
         rdf:about="">
        <dc:format>image/svg+xml</dc:format>
        <dc:type
           rdf:resource="http://purl.org/dc/dcmitype/StillImage" />
        <dc:title />
      </cc:Work>
    </rdf:RDF>
  </metadata>
  <g
     inkscape:groupmode="layer"
     id="layer10"
     inkscape:label="footl"
     style="display:inline"
     transform="translate(0,-1953.2598)" />
  <g
     inkscape:groupmode="layer"
     id="layer9"
     inkscape:label="footr"
     style="display:inline"
     transform="translate(0,-1953.2598)">
    <path
       style="fill:none;stroke:#000000;stroke-width:2.93838525;stroke-linecap:butt;stroke-linejoin:miter;stroke-miterlimit:4;stroke-opacity:1;stroke-dasharray:none;display:inline"
       d="M 129.28125 689.90625 C 128.17028 689.97681 127.04347 690.0535 125.875 690 C 124.34204 689.92981 122.78581 689.73021 121.1875 689.4375 C 119.58919 689.14479 117.96924 688.74417 116.34375 688.21875 C 114.71826 687.69333 113.15474 687.07319 111.6875 686.375 C 110.22026 685.67681 108.84651 684.90286 107.5625 684.0625 C 106.97804 683.67999 106.48023 683.25111 105.9375 682.84375 C 105.77114 688.83179 105.41181 693.44981 104.5 694.09375 C 93.506355 722.44705 54.21161 733.74645 54.0625 746.96875 C 54.42906 765.77855 102.49662 760.8776 110.90625 748.5625 C 125.11726 725.5922 138.41308 735.68975 129.9375 708.21875 C 129.34732 701.36911 129.22494 695.44994 129.28125 689.90625 z "
       id="path4130"
       transform="translate(-2.2135417e-6,1953.2598)" />
    <path
       style="fill:none;stroke:#000000;stroke-width:2.93838525;stroke-linecap:butt;stroke-linejoin:miter;stroke-miterlimit:4;stroke-opacity:1;stroke-dasharray:none;display:inline"
       d="M 102.65625 523.875 C 100.10121 523.87037 97.659233 523.96467 95.34375 524.15625 C 94.313436 524.2415 93.411837 524.40875 92.4375 524.53125 C 93.331013 533.82176 94.330733 541.75079 95.3125 550.1875 C 95.979697 555.92098 96.628402 562.44127 97.25 567.625 C 99.124806 569.24456 103.92472 620.94379 105.53125 657.78125 C 105.97095 667.86352 106.11693 676.38522 105.9375 682.84375 C 106.48023 683.25111 106.97804 683.67999 107.5625 684.0625 C 108.84651 684.90286 110.22026 685.67681 111.6875 686.375 C 113.15474 687.07319 114.71826 687.69333 116.34375 688.21875 C 117.96924 688.74417 119.58919 689.14479 121.1875 689.4375 C 122.78581 689.73021 124.34204 689.92981 125.875 690 C 127.04347 690.0535 128.17028 689.97681 129.28125 689.90625 C 129.40349 677.87111 130.82438 668.52175 132.875 660.78125 C 140.51904 631.92727 156.1816 623.94518 140.3125 571.09375 C 142.14685 564.59202 143.33664 559.54236 144.78125 553.90625 C 146.48817 547.24672 148.14456 540.73304 149.375 535.15625 C 148.67369 534.71594 148.09534 534.23933 147.3125 533.8125 C 145.5868 532.8716 143.64721 531.98013 141.5625 531.125 C 139.47779 530.26987 137.23634 529.46022 134.84375 528.71875 C 132.45116 527.97728 129.93059 527.28744 127.28125 526.6875 C 124.63191 526.08756 121.85496 525.58678 119 525.15625 C 116.14504 524.72572 113.32862 524.3995 110.59375 524.1875 C 107.85888 523.9755 105.21129 523.87963 102.65625 523.875 z "
       transform="translate(-2.2135417e-6,1953.2598)"
       id="path4128" />
    <path
       style="fill:none;stroke:#000000;stroke-width:2.93838525;stroke-linecap:butt;stroke-linejoin:miter;stroke-miterlimit:4;stroke-opacity:1;stroke-dasharray:none;display:inline"
       d="m 96.834436,405.75207 c -12.312826,34.64616 -8.149731,78.48838 -4.396936,118.77918 0.974337,-0.1225 1.875936,-0.28975 2.90625,-0.375 2.315483,-0.19158 4.75746,-0.28588 7.3125,-0.28125 2.55504,0.005 5.20263,0.1005 7.9375,0.3125 2.73487,0.212 5.55129,0.53822 8.40625,0.96875 2.85496,0.43053 5.63191,0.93131 8.28125,1.53125 2.64934,0.59994 5.16991,1.28978 7.5625,2.03125 2.39259,0.74147 4.63404,1.55112 6.71875,2.40625 2.08471,0.85513 4.0243,1.7466 5.75,2.6875 0.78284,0.42683 1.36119,0.90344 2.0625,1.34375 12.72588,-57.67811 7.87424,-59.51764 14.08929,-84.04464 2.80165,-5.77731 14.84229,-5.63763 17.84385,0.17857 6.1406,24.23313 0.26351,27.49685 12.28571,83.20982 0.87128,-0.57099 1.68007,-1.13822 2.6875,-1.6875 1.7257,-0.9409 3.63404,-1.86362 5.71875,-2.71875 2.08471,-0.85513 4.32616,-1.63353 6.71875,-2.375 2.39259,-0.74147 4.94441,-1.43131 7.59375,-2.03125 2.64934,-0.59994 5.42629,-1.13197 8.28125,-1.5625 2.85496,-0.43053 5.64013,-0.7255 8.375,-0.9375 2.73487,-0.212 5.41371,-0.33912 7.96875,-0.34375 2.55504,-0.005 4.99702,0.0897 7.3125,0.28125 2.31548,0.19158 4.48381,0.49837 6.5,0.875 1.13946,0.21286 2.09606,0.51208 3.125,0.78125 2.31942,-47.13121 6.26915,-81.00104 -8.5928,-118.56297 -41.16257,-10.36567 -90.06079,-13.93469 -152.447864,-0.46621 z"
       transform="translate(-2.2135417e-6,1953.2598)"
       id="rect3344-6-1-4-6-2-2"
       inkscape:connector-curvature="0"
       sodipodi:nodetypes="ccssssssssccccsssssssssccc" />
    <path
       style="fill:none;stroke:#000000;stroke-width:2.93838525;stroke-linecap:butt;stroke-linejoin:miter;stroke-miterlimit:4;stroke-opacity:1;stroke-dasharray:none;display:inline"
       d="M 238.0625 683.96875 C 237.14277 684.74049 236.18518 685.52489 235.125 686.21875 C 233.84099 687.05911 232.46724 687.83306 231 688.53125 C 229.53276 689.22944 227.96924 689.84958 226.34375 690.375 C 224.71826 690.90042 223.09831 691.30104 221.5 691.59375 C 219.90169 691.88646 218.31421 692.05481 216.78125 692.125 C 215.8528 692.16751 214.987 692.09861 214.09375 692.0625 C 214.11701 697.36285 213.96394 702.99615 213.40625 709.46875 C 204.93067 736.93975 218.22649 726.8422 232.4375 749.8125 C 240.84713 762.1276 288.91469 767.02855 289.28125 748.21875 C 289.13214 734.99645 249.83739 723.69705 238.84375 695.34375 C 237.92605 694.69565 237.84887 690.02316 238.0625 683.96875 z "
       id="path4135"
       transform="translate(-2.2135417e-6,1953.2598)" />
    <path
       style="fill:none;stroke:#000000;stroke-width:2.93838525;stroke-linecap:butt;stroke-linejoin:miter;stroke-miterlimit:4;stroke-opacity:1;stroke-dasharray:none;display:inline"
       d="M 240.9375 522.84375 C 238.38246 522.84838 235.70362 522.9755 232.96875 523.1875 C 230.23388 523.3995 227.44871 523.69447 224.59375 524.125 C 221.73879 524.55553 218.96184 525.08756 216.3125 525.6875 C 213.66316 526.28744 211.11134 526.97728 208.71875 527.71875 C 206.32616 528.46022 204.08471 529.23862 202 530.09375 C 199.91529 530.94888 198.00695 531.8716 196.28125 532.8125 C 195.27382 533.36178 194.46503 533.92901 193.59375 534.5 C 194.77298 539.96476 196.28861 546.15178 197.9375 552.6875 C 199.5298 558.99892 200.93334 564.90785 203.03125 572.34375 C 187.07644 625.48059 202.9973 633.26035 210.59375 662.5 C 212.63125 670.34258 214.04003 679.82174 214.09375 692.0625 C 214.987 692.09861 215.8528 692.16751 216.78125 692.125 C 218.31421 692.05481 219.90169 691.88646 221.5 691.59375 C 223.09831 691.30104 224.71826 690.90042 226.34375 690.375 C 227.96924 689.84958 229.53276 689.22944 231 688.53125 C 232.46724 687.83306 233.84099 687.05911 235.125 686.21875 C 236.18518 685.52489 237.14277 684.74049 238.0625 683.96875 C 238.27158 678.04311 238.86138 670.37584 239.8125 661.34375 C 243.70161 624.41192 252.27128 570.53034 254.1875 568.875 C 255.03647 561.79514 255.77558 554.04132 256.4375 545.9375 C 256.99374 539.12753 257.51495 532.09748 257.875 524.78125 C 256.84606 524.51208 255.88946 524.21286 254.75 524 C 252.73381 523.62337 250.56548 523.31658 248.25 523.125 C 245.93452 522.93342 243.49254 522.83912 240.9375 522.84375 z "
       transform="translate(-2.2135417e-6,1953.2598)"
       id="path4133" />
  </g>
  <g
     inkscape:groupmode="layer"
     id="layer3"
     inkscape:label="armr"
     style="display:inline"
     transform="translate(0,-1953.2598)">
    <path
       style="opacity:0.93199978;fill:none;stroke:#000000;stroke-width:2.93838525;stroke-linecap:round;stroke-linejoin:round;stroke-miterlimit:4;stroke-opacity:1;stroke-dasharray:none"
       d="M 135.3125 201.5625 C 131.71576 203.4865 105.90797 202.60935 91.8125 207.53125 C 91.87121 207.60155 91.91058 207.67993 91.96875 207.75 C 67.798009 210.48247 70.007616 242.48144 64.21875 252.78125 C 59.533895 261.11681 60.061114 259.88607 58.03125 266.9375 C 69.883369 267.17048 84.401395 274.27468 87.4375 280.5625 C 87.652421 277.61563 88.107689 277.0086 87.9375 273.65625 C 94.610379 267.41546 98.835282 260.71373 101.15625 253.875 C 100.94842 255.09957 100.73595 256.26846 100.53125 257.5625 C 102.08902 275.0989 100.26071 291.335 117.90625 300.75 C 123.32404 302.00575 127.81842 344.75308 121.28125 352.34375 C 121.28125 352.34375 103.16085 369.41036 95.78125 405.96875 C 117.25377 402.1317 131.3123 399.86133 143.625 398.625 C 143.61538 398.6889 143.6035 398.74846 143.59375 398.8125 C 188.97165 397.2779 197.58385 397.3657 249.75 406.6875 C 242.3704 370.1292 224.25 353.0625 224.25 353.0625 C 217.71283 345.4719 222.20721 302.72445 227.625 301.46875 C 245.27054 292.05375 243.44223 275.81765 245 258.28125 C 244.7953 256.98725 244.58283 255.81835 244.375 254.59375 C 246.69597 261.43245 250.92087 268.1343 257.59375 274.375 C 257.42356 277.7274 257.84758 278.33435 258.0625 281.28125 C 261.0986 274.99345 275.64788 267.88925 287.5 267.65625 C 285.47014 260.60485 285.99736 261.8356 281.3125 253.5 C 275.52364 243.2002 277.73324 211.20125 253.5625 208.46875 C 253.62065 208.39865 253.66005 208.32 253.71875 208.25 C 239.62328 203.3281 213.81549 204.20525 210.21875 202.28125 C 219.00946 206.45975 206.60944 227.67969 181.5 231.1875 C 178.49163 230.87035 175.08724 230.80555 171.21875 231 C 141.33357 231.044 125.71584 206.1241 135.3125 201.5625 z "
       transform="translate(-2.2135417e-6,1953.2598)"
       id="rect3344-6-2" />
    <path
       inkscape:connector-curvature="0"
       style="opacity:0.93199978;fill:none;stroke:#000000;stroke-width:2.93838525;stroke-linecap:round;stroke-linejoin:round;stroke-miterlimit:4;stroke-opacity:1;stroke-dasharray:none;display:inline"
       d="m 57.559818,2220.372 c -11.657024,28.6397 -4.840002,48.2855 -16.4375,65.7188 -25.757129,38.7177 -14.48243,76.0902 -31.062499,114.2187 -8.557613,25.9669 37.899209,59.2833 35.374999,32.75 -3.63383,-35.5411 -11.35699,3.4724 -10.625,-22.8125 0.1753,-6.2949 5.17406,1.094 6.4375,4.1875 8.0684,19.756 10.98191,10.141 11.65625,-1.9687 0.23083,-4.1453 0.8743,-1.0983 -4.875,-13.6875 -17.69169,-38.7396 16.471371,-64.0573 18.406251,-104.2188 0.885623,-18.3824 20.869637,-29.4803 21.125,-61.3125 -5.563959,-5.6523 -12.02764,-9.6333 -19.34375,-11.5625 -3.478991,-0.9173 -7.044757,-1.3552 -10.625001,-1.3125 -0.0015,0 -0.02974,0 -0.03125,0 z"
       id="rect3344-6-2-8" />
    <path
       inkscape:connector-curvature="0"
       style="opacity:0.93199978;fill:none;stroke:#000000;stroke-width:2.93838525;stroke-linecap:round;stroke-linejoin:round;stroke-miterlimit:4;stroke-opacity:1;stroke-dasharray:none;display:inline"
       d="m 287.95649,2221.0824 c 11.65703,28.6397 4.84001,48.2855 16.4375,65.7188 25.75713,38.7177 14.48243,76.0902 31.0625,114.2187 8.55761,25.9669 -37.89921,59.2833 -35.375,32.75 3.63383,-35.5411 11.35699,3.4724 10.625,-22.8125 -0.1753,-6.2949 -5.17406,1.094 -6.4375,4.1875 -8.0684,19.756 -10.98191,10.141 -11.65625,-1.9687 -0.23083,-4.1453 -0.8743,-1.0983 4.875,-13.6875 17.69169,-38.7396 -16.47137,-64.0573 -18.40625,-104.2188 -0.88562,-18.3824 -20.86964,-29.4803 -21.125,-61.3125 5.56396,-5.6523 12.02764,-9.6333 19.34375,-11.5625 3.47899,-0.9173 7.04476,-1.3552 10.625,-1.3125 0.002,0 0.0297,0 0.0312,0 z"
       id="rect3344-6-2-8-5" />
  </g>
  <g
     inkscape:groupmode="layer"
     id="layer4"
     inkscape:label="arml"
     style="display:inline"
     transform="translate(0,-1953.2598)" />
  <g
     inkscape:groupmode="layer"
     id="layer5"
     inkscape:label="torax"
     style="display:inline"
     transform="translate(0,-1953.2598)" />
  <g
     inkscape:groupmode="layer"
     id="layer6"
     inkscape:label="head"
     style="display:inline"
     transform="translate(0,-1953.2598)">
    <path
       id="path3002"
       style="fill:none;stroke:#000000;stroke-width:2.9000001;stroke-miterlimit:4;stroke-opacity:1;stroke-dasharray:none"
       d="m 145.15625,2140.1973 c 0.26928,10.5172 -13.35121,14.2478 -12.6875,21.5 2.80184,12.0839 15.50157,18.4349 26.50005,21.3416 16.8636,3.7659 37.39314,0.6347 48.9062,-13.3104 3.79955,-4.243 6.31532,-12.3402 0.75355,-15.3995 -4.78911,-2.8501 -9.5542,-8.5992 -10.19866,-13.6757 -20.40268,6.9253 -31.36469,7.0012 -53.27364,-0.456 z m 26.51419,-180.3335 -9.8e-4,0.1073 c -76.135889,1.2594 -80.736449,80.8292 -75.421549,96.1594 2.67833,7.7253 -13.63629,-9.1788 -11.74974,14.2018 1.23955,15.3621 14.37174,7.5043 14.67642,8.3045 15.307769,36.8484 37.485999,68.8316 72.961739,66.7069 31.94696,1.4692 55.73578,-19.0547 73.91525,-66.7985 0.30469,-0.8002 13.43691,7.0577 14.67642,-8.3044 1.88657,-23.3807 -14.42811,-6.4764 -11.74973,-14.2018 5.35842,-15.456 0.63882,-96.2103 -77.30847,-96.1755 z"
       inkscape:connector-curvature="0"
       sodipodi:nodetypes="cccccccccssccssscc" />
  </g>
  <g
     inkscape:groupmode="layer"
     id="layer7"
     inkscape:label="legr"
     style="display:inline"
     transform="translate(0,-1953.2598)" />
  <g
     inkscape:groupmode="layer"
     id="layer8"
     inkscape:label="legl"
     style="display:inline"
     transform="translate(0,-1953.2598)" />
</svg>
