<?xml version="1.0" encoding="UTF-8" standalone="no"?>
<!-- Created with Inkscape (http://www.inkscape.org/) -->

<svg
   xmlns:dc="http://purl.org/dc/elements/1.1/"
   xmlns:cc="http://creativecommons.org/ns#"
   xmlns:rdf="http://www.w3.org/1999/02/22-rdf-syntax-ns#"
   xmlns:svg="http://www.w3.org/2000/svg"
   xmlns="http://www.w3.org/2000/svg"
   xmlns:sodipodi="http://sodipodi.sourceforge.net/DTD/sodipodi-0.dtd"
   xmlns:inkscape="http://www.inkscape.org/namespaces/inkscape"
   width="340"
   height="768"
   viewBox="0 0 340.00001 768.00001"
   id="svg2"
   version="1.1"
   inkscape:version="0.48.4 r9939"
   sodipodi:docname="avatar_male.svg">
  <defs
     id="defs4" />
  <sodipodi:namedview
     id="base"
     pagecolor="#ffffff"
     bordercolor="#666666"
     borderopacity="1.0"
     inkscape:pageopacity="0.0"
     inkscape:pageshadow="2"
     inkscape:zoom="3.9597979"
     inkscape:cx="218.42194"
     inkscape:cy="48.3571"
     inkscape:document-units="px"
     inkscape:current-layer="layer5"
     showgrid="false"
     inkscape:window-width="1440"
     inkscape:window-height="837"
     inkscape:window-x="-8"
     inkscape:window-y="-8"
     inkscape:window-maximized="1"
     showguides="true"
     inkscape:snap-text-baseline="true"
     units="px"
     inkscape:snap-global="true"
     inkscape:snap-center="false"
     inkscape:snap-to-guides="true"
     inkscape:snap-grids="true">
    <inkscape:grid
       type="xygrid"
       id="grid3001" />
  </sodipodi:namedview>
  <metadata
     id="metadata7">
    <rdf:RDF>
      <cc:Work
         rdf:about="">
        <dc:format>image/svg+xml</dc:format>
        <dc:type
           rdf:resource="http://purl.org/dc/dcmitype/StillImage" />
        <dc:title />
      </cc:Work>
    </rdf:RDF>
  </metadata>
  <g
     inkscape:groupmode="layer"
     id="layer10"
     inkscape:label="footl"
     transform="translate(0,-1953.2598)">
    <path
       style="fill:none;stroke:#000000;stroke-width:2.91900015;stroke-linecap:butt;stroke-linejoin:miter;stroke-miterlimit:4;stroke-opacity:1;stroke-dasharray:none"
       d="M 124.9375 691.03125 C 124.7218 691.06234 124.52949 691.12741 124.3125 691.15625 C 121.6857 691.50539 118.94196 691.6875 116.15625 691.6875 C 113.37054 691.6875 110.65805 691.50539 108.03125 691.15625 C 105.40445 690.80711 102.88256 690.28814 100.46875 689.625 C 98.054941 688.96186 95.740478 688.12951 93.59375 687.1875 C 91.447022 686.24549 89.450558 685.18575 87.625 684 C 86.169981 683.05492 84.938873 681.98611 83.71875 680.90625 C 83.410757 693.95159 82.723295 704.24505 81.125 706.78125 C 70.202408 734.94665 43.179433 739.08415 43.03125 752.21875 C 43.395426 770.90395 96.863565 768.171 105.21875 755.9375 C 119.28855 733.19918 134.58478 742.74673 126.34375 715.8125 C 125.49664 706.24175 125.06111 698.10081 124.9375 691.03125 z "
       id="path3951"
       transform="translate(0,1953.2598)" />
    <path
       style="fill:none;stroke:#000000;stroke-width:2.91900015;stroke-linecap:butt;stroke-linejoin:miter;stroke-miterlimit:4;stroke-opacity:1;stroke-dasharray:none"
       d="M 83.90625 522.53125 C 82.694742 522.52764 81.502931 522.5489 80.3125 522.5625 C 80.063057 535.60638 80.495854 547.99308 81.5625 559.5 C 81.965868 563.85152 82.275927 568.3149 82.875 572.34375 C 82.528751 587.84991 83.526142 620.488 83.84375 649.9375 C 83.966795 661.3466 83.935065 671.74401 83.71875 680.90625 C 84.938873 681.98611 86.169981 683.05492 87.625 684 C 89.450558 685.18575 91.447022 686.24549 93.59375 687.1875 C 95.740478 688.12951 98.054941 688.96186 100.46875 689.625 C 102.88256 690.28814 105.40445 690.80711 108.03125 691.15625 C 110.65805 691.50539 113.37054 691.6875 116.15625 691.6875 C 118.94196 691.6875 121.6857 691.50539 124.3125 691.15625 C 124.52949 691.12741 124.7218 691.06234 124.9375 691.03125 C 124.49844 665.91952 127.829 654.30083 130.03125 640.9375 C 132.15202 628.0686 133.23904 613.583 128.59375 583.46875 C 131.10843 577.73987 133.02546 572.74177 134.71875 567.96875 C 139.32008 554.99857 141.33353 544.93852 142.5 535.5625 C 142.16737 535.40816 141.90139 535.24654 141.5625 535.09375 C 138.65685 533.78369 135.51343 532.54846 132.1875 531.375 C 128.86157 530.20154 125.33094 529.08898 121.65625 528.09375 C 117.98156 527.09852 114.17069 526.21287 110.21875 525.4375 C 106.26681 524.66213 102.37207 524.02956 98.59375 523.5625 C 94.815431 523.09544 91.147757 522.79526 87.625 522.625 C 86.348964 522.56333 85.117758 522.53486 83.90625 522.53125 z "
       transform="translate(0,1953.2598)"
       id="path3949" />
    <path
       style="fill:none;stroke:#000000;stroke-width:2.91900015;stroke-linecap:butt;stroke-linejoin:miter;stroke-miterlimit:4;stroke-opacity:1;stroke-dasharray:none"
       d="M 255.34375 682.875 C 254.64296 683.40935 254.04496 684.00395 253.28125 684.5 C 251.45569 685.68575 249.45923 686.77674 247.3125 687.71875 C 245.16577 688.66076 242.88256 689.46186 240.46875 690.125 C 238.05494 690.78814 235.53305 691.30711 232.90625 691.65625 C 230.27945 692.00539 227.53571 692.1875 224.75 692.1875 C 221.96429 692.1875 219.2518 692.00539 216.625 691.65625 C 215.73409 691.53784 214.93097 691.28087 214.0625 691.125 C 213.92309 698.02733 213.50613 705.84474 212.6875 715.09375 C 204.44647 742.02795 219.7427 732.5117 233.8125 755.25 C 242.16769 767.4835 295.63583 770.1852 296 751.5 C 295.85182 738.3654 268.82885 734.2279 257.90625 706.0625 C 256.40537 703.68087 255.6878 694.71171 255.34375 682.875 z "
       id="path3946"
       transform="translate(0,1953.2598)" />
    <path
       style="fill:none;stroke:#000000;stroke-width:2.91900015;stroke-linecap:butt;stroke-linejoin:miter;stroke-miterlimit:4;stroke-opacity:1;stroke-dasharray:none"
       d="M 256.21875 524.09375 C 255.35879 524.08918 254.47318 524.08099 253.5625 524.125 C 250.03974 524.29526 246.37207 524.62669 242.59375 525.09375 C 238.81543 525.56081 234.92069 526.16213 230.96875 526.9375 C 227.01681 527.71287 223.17469 528.62977 219.5 529.625 C 215.82531 530.62023 212.32593 531.70154 209 532.875 C 205.67407 534.04846 202.53065 535.31494 199.625 536.625 C 198.66099 537.05964 197.88126 537.52212 196.96875 537.96875 C 198.20693 546.87674 200.55703 556.84528 205.1875 569.4375 C 206.72916 573.62992 208.27364 577.82034 210.4375 582.75 C 205.60486 614.07876 206.95715 628.51432 209.25 641.78125 C 211.47141 654.63483 214.55987 666.49964 214.0625 691.125 C 214.93097 691.28087 215.73409 691.53784 216.625 691.65625 C 219.2518 692.00539 221.96429 692.1875 224.75 692.1875 C 227.53571 692.1875 230.27945 692.00539 232.90625 691.65625 C 235.53305 691.30711 238.05494 690.78814 240.46875 690.125 C 242.88256 689.46186 245.16577 688.66076 247.3125 687.71875 C 249.45923 686.77674 251.45569 685.68575 253.28125 684.5 C 254.04496 684.00395 254.64296 683.40935 255.34375 682.875 C 255.06175 673.17334 255.05051 661.45053 255.1875 648.9375 C 255.50903 619.56768 256.50128 587.07656 256.15625 571.625 C 256.61696 568.52668 256.84282 565.043 257.1875 561.75 C 258.40857 550.08433 258.96294 537.4708 258.78125 524.09375 C 257.91304 524.09926 257.07871 524.09832 256.21875 524.09375 z "
       transform="translate(0,1953.2598)"
       id="path3944" />
    <path
       style="fill:none;stroke:#000000;stroke-width:2.91900015;stroke-linecap:butt;stroke-linejoin:miter;stroke-miterlimit:4;stroke-opacity:1;stroke-dasharray:none"
       d="M 235.75 392.0625 C 193.28713 408.36854 141.82401 405.30893 103.28125 392.78125 C 89.211642 428.33498 81.158677 478.3141 80.3125 522.5625 C 82.693363 522.53529 85.072927 522.50166 87.625 522.625 C 91.147757 522.79526 94.815431 523.09544 98.59375 523.5625 C 102.37207 524.02956 106.26681 524.66213 110.21875 525.4375 C 114.17069 526.21287 117.98156 527.09852 121.65625 528.09375 C 125.33094 529.08898 128.86157 530.20154 132.1875 531.375 C 135.51343 532.54846 138.65685 533.78369 141.5625 535.09375 C 141.90139 535.24654 142.16737 535.40816 142.5 535.5625 C 144.78077 517.22978 144.21935 500.89021 155.09375 467.6875 C 164.7933 464.08315 175.49566 464.22769 184.1875 467.96875 C 195.61932 502.87345 194.29284 518.71711 196.96875 537.96875 C 197.88126 537.52212 198.66099 537.05964 199.625 536.625 C 202.53065 535.31494 205.67407 534.04846 209 532.875 C 212.32593 531.70154 215.82531 530.62023 219.5 529.625 C 223.17469 528.62977 227.01681 527.71287 230.96875 526.9375 C 234.92069 526.16213 238.81543 525.56081 242.59375 525.09375 C 246.37207 524.62669 250.03974 524.29526 253.5625 524.125 C 255.38386 524.03697 257.04482 524.10477 258.78125 524.09375 C 258.17295 479.30642 250.0564 428.21458 235.75 392.0625 z "
       id="rect3344-6-1-4-6-2"
       transform="translate(0,1953.2598)" />
  </g>
  <g
     inkscape:groupmode="layer"
     id="layer9"
     inkscape:label="footr"
     style="display:inline"
     transform="translate(0,-1953.2598)" />
  <g
     inkscape:groupmode="layer"
     id="layer3"
     inkscape:label="armr"
     style="display:inline"
     transform="translate(0,-1953.2598)">
    <path
       style="opacity:0.93199978;fill:none;stroke:#000000;stroke-width:2.91915703;stroke-linecap:round;stroke-linejoin:round;stroke-miterlimit:4;stroke-opacity:1;stroke-dasharray:none"
       d="M 45.78125 493.09375 C 45.234535 493.8517 45.20798 493.78306 46.84375 492.53125 C 46.48807 492.7544 46.134338 492.89071 45.78125 493.09375 z "
       id="path3862"
       transform="translate(0,1953.2598)" />
    <path
       style="opacity:0.93199978;fill:none;stroke:#000000;stroke-width:2.91915703;stroke-linecap:round;stroke-linejoin:round;stroke-miterlimit:4;stroke-opacity:1;stroke-dasharray:none"
       d="M 42.5 280.78125 C 38.91016 280.84125 36.397538 280.9442 33.9375 281.0625 C 31.256636 291.1267 30.144575 300.59725 28.0625 309.40625 C 27.101172 313.47347 25.954492 317.40816 24.28125 321.1875 C 8.5617636 356.6929 11.642065 415.00595 11.09375 464.15625 C 10.323786 484.57161 25.96367 504.48944 45.78125 493.09375 C 47.185623 491.14678 52.529434 482.26669 45.71875 462.8125 C 43.651767 456.9082 49.942209 457.40515 52.125 459.90625 C 67.267435 477.25555 67.63603 452.31695 56.03125 446.71875 C 50.110346 443.86265 44.019571 444.22595 44.09375 436.09375 C 44.650705 375.03105 61.076888 380.7113 58.28125 336.6875 C 58.023968 332.63599 59.308776 328.76582 61.34375 324.84375 C 64.613842 318.54115 69.917834 312.03655 74.71875 304.28125 C 74.344046 303.01375 74.024263 301.73205 73.5 300.53125 C 72.648551 298.58095 71.615723 296.70505 70.40625 294.96875 C 69.196777 293.23235 67.803615 291.63165 66.28125 290.15625 C 64.758885 288.68075 63.102623 287.355 61.3125 286.1875 C 59.522377 285.02 57.606498 283.9999 55.59375 283.1875 C 53.581002 282.3751 51.471489 281.75395 49.28125 281.34375 C 47.091011 280.93345 44.822598 280.74225 42.5 280.78125 z "
       transform="translate(0,1953.2598)"
       id="path3860" />
    <path
       style="opacity:0.93199978;fill:none;stroke:#000000;stroke-width:2.91915703;stroke-linecap:round;stroke-linejoin:round;stroke-miterlimit:4;stroke-opacity:1;stroke-dasharray:none"
       d="m 89.75,198.8125 c -30.875637,10.59372 -32.154257,36.81334 -37.607143,46.04911 -9.299115,10.1657 -11.880435,17.78139 -15.361607,27.07589 -1.161063,3.09996 -2.045639,6.12882 -2.84375,9.125 2.460038,-0.11827 4.97266,-0.22097 8.5625,-0.28125 2.322598,-0.039 4.591011,0.15225 6.78125,0.5625 2.190239,0.41025 4.299752,1.03134 6.3125,1.84375 2.012748,0.81241 3.928627,1.83251 5.71875,3 1.790123,1.16749 3.446385,2.49327 4.96875,3.96875 1.522365,1.47548 2.915527,3.07611 4.125,4.8125 1.209473,1.73639 2.242301,3.61228 3.09375,5.5625 0.524263,1.20081 0.844046,2.48254 1.21875,3.75 1.456922,-2.35349 2.851814,-4.78674 4.125,-7.40625 3.286723,-6.76219 5.707764,-14.51003 5.96875,-23.78125 1.359129,15.09944 4.43054,22.22471 13.5,35.3125 0,0 0.485073,28.60375 5.21875,35.65625 8.03999,11.9784 -3.51232,25.7604 -0.125,48.1875 41.14549,19.3113 107.55196,12.19635 132.34375,-1.71875 3.38729,-22.427 -8.23354,-32.57235 -1.40625,-45.28125 7.99557,-14.8833 4.79538,-34.56945 6.96875,-37.40625 13.94966,-19.22682 13.82093,-22.55942 15.49107,-33.83036 -1.42816,13.1521 2.45647,18.16946 6.69643,26.89286 1.27318,2.6195 2.66808,5.05275 4.125,7.40625 0.3747,-1.2674 0.69449,-2.5492 1.21875,-3.75 0.85145,-1.9502 1.88428,-3.8261 3.09375,-5.5625 1.20947,-1.7364 2.60263,-3.337 4.125,-4.8125 1.52236,-1.4755 3.17863,-2.80125 4.96875,-3.96875 1.79012,-1.1675 3.706,-2.1876 5.71875,-3 2.01275,-0.8124 4.12226,-1.43345 6.3125,-1.84375 2.19024,-0.4102 4.45865,-0.6015 6.78125,-0.5625 3.58984,0.0603 6.10246,0.16295 8.5625,0.28125 -0.79811,-2.9962 -1.68269,-8.5251 -2.84375,-11.625 -3.48117,-9.2945 -2.56986,-13.69119 -12.33115,-26.36161 -5.4785,-7.11124 -5.26234,-37.00979 -40.69607,-45.36151 -26.27882,0.77513 -45.30578,-3.42625 -48.93909,-8.07346 -8.81722,11.27055 -49.47289,15.33728 -66.56096,-0.39057 -7.4352,6.66648 -27.67238,1.29926 -47.28523,5.5309 z"
       id="rect3344-6-2"
       inkscape:connector-curvature="0"
       sodipodi:nodetypes="ccscssssssscsccsccsccscssssscscsscccc"
       transform="translate(0,1953.2598)" />
    <path
       inkscape:connector-curvature="0"
       style="opacity:0.93199978;fill:none;stroke:#000000;stroke-width:2.91915703;stroke-linecap:round;stroke-linejoin:round;stroke-miterlimit:4;stroke-opacity:1;stroke-dasharray:none;display:inline"
       d="m 299.8402,2238.0855 c 3.58984,0.06 6.10246,0.163 8.5625,0.2813 2.68086,10.0642 3.79292,19.5347 5.875,28.3437 0.96133,4.0672 2.10801,8.0019 3.78125,11.7813 15.71949,35.5054 12.63919,93.8184 13.1875,142.9687 0.76996,20.4154 -14.86992,40.3332 -34.6875,28.9375 -1.40437,-1.9469 -6.74818,-10.827 0.0625,-30.2812 2.06698,-5.9043 -4.22346,-5.4074 -6.40625,-2.9063 -15.14244,17.3493 -15.51103,-7.5893 -3.90625,-13.1875 5.9209,-2.8561 12.01168,-2.4928 11.9375,-10.625 -0.55696,-61.0627 -16.98314,-55.3824 -14.1875,-99.4062 0.25728,-4.0515 -1.02753,-7.9217 -3.0625,-11.8438 -3.27009,-6.3026 -8.57409,-12.8072 -13.375,-20.5625 0.3747,-1.2675 0.69449,-2.5492 1.21875,-3.75 0.85145,-1.9503 1.88428,-3.8262 3.09375,-5.5625 1.20947,-1.7364 2.60263,-3.3371 4.125,-4.8125 1.52236,-1.4755 3.17863,-2.8012 4.96875,-3.9687 1.79012,-1.1675 3.706,-2.1876 5.71875,-3 2.01275,-0.8124 4.12226,-1.4336 6.3125,-1.8438 2.19024,-0.4103 4.45865,-0.6015 6.78125,-0.5625 z"
       id="path3860-9" />
  </g>
  <g
     inkscape:groupmode="layer"
     id="layer4"
     inkscape:label="arml"
     style="display:inline"
     transform="translate(0,-1953.2598)" />
  <g
     inkscape:groupmode="layer"
     id="layer5"
     inkscape:label="torax"
     style="display:inline"
     transform="translate(0,-1953.2598)" />
  <g
     inkscape:groupmode="layer"
     id="layer6"
     inkscape:label="head"
     style="display:inline"
     transform="translate(0,-1953.2598)">
    <path
       id="path3957"
       style="fill:none;stroke:#000000;stroke-width:2.9000001;stroke-linecap:round;stroke-linejoin:round;stroke-miterlimit:4;stroke-opacity:1;stroke-dasharray:none"
       d="m 140.94258,2133.3828 c -1.01319,2.4996 0.32332,5.2534 -3.09375,12.5938 9.50603,14.9734 53.06991,13.6023 66.01339,0.8437 -5.90576,-9.4827 -2.91463,-12.2457 -5.71875,-11.433 -20.38768,10.4586 -42.46674,7.1117 -57.20089,-2.0045 z m 27.58776,-178.716 0,0.1067 c -75.643679,1.2509 -80.214429,80.2938 -74.933917,95.5225 2.661039,7.6743 -13.548099,-9.1181 -11.673806,14.1078 1.231549,15.2603 14.278805,7.4545 14.581554,8.2494 15.926049,29.8134 32.170889,68.1812 73.755629,68.0506 37.70522,0.1804 52.98658,-26.4689 72.17373,-68.1417 0.30273,-0.795 13.35009,7.0109 14.58156,-8.2496 1.87436,-23.2258 -14.33485,-6.4336 -11.67374,-14.1077 5.32381,-15.3536 0.63462,-95.5732 -76.80863,-95.5386 z"
       inkscape:connector-curvature="0"
       sodipodi:nodetypes="cccccccsscccsccc" />
  </g>
  <g
     inkscape:groupmode="layer"
     id="layer7"
     inkscape:label="legr"
     transform="translate(0,-1953.2598)" />
  <g
     inkscape:groupmode="layer"
     id="layer8"
     inkscape:label="legl"
     transform="translate(0,-1953.2598)" />
</svg>
