<?xml version="1.0" encoding="UTF-8" standalone="no"?>
<!-- Created with Inkscape (http://www.inkscape.org/) -->

<svg
   xmlns:dc="http://purl.org/dc/elements/1.1/"
   xmlns:cc="http://creativecommons.org/ns#"
   xmlns:rdf="http://www.w3.org/1999/02/22-rdf-syntax-ns#"
   xmlns:svg="http://www.w3.org/2000/svg"
   xmlns="http://www.w3.org/2000/svg"
   xmlns:sodipodi="http://sodipodi.sourceforge.net/DTD/sodipodi-0.dtd"
   xmlns:inkscape="http://www.inkscape.org/namespaces/inkscape"
   width="64"
   height="64"
   viewBox="0 0 63.999999 63.999999"
   id="svg2"
   version="1.1"
   inkscape:version="0.91 r13725"
   sodipodi:docname="gloves.svg">
  <defs
     id="defs4">
    <pattern
       y="0"
       x="0"
       height="6"
       width="6"
       patternUnits="userSpaceOnUse"
       id="EMFhbasepattern" />
    <pattern
       y="0"
       x="0"
       height="6"
       width="6"
       patternUnits="userSpaceOnUse"
       id="EMFhbasepattern-0" />
  </defs>
  <sodipodi:namedview
     id="base"
     pagecolor="#ffffff"
     bordercolor="#666666"
     borderopacity="1.0"
     inkscape:pageopacity="0.0"
     inkscape:pageshadow="2"
     inkscape:zoom="2.8"
     inkscape:cx="55.658902"
     inkscape:cy="55.215806"
     inkscape:document-units="px"
     inkscape:current-layer="layer1"
     showgrid="false"
     units="px"
     inkscape:window-width="1440"
     inkscape:window-height="837"
     inkscape:window-x="-8"
     inkscape:window-y="-8"
     inkscape:window-maximized="1"
     showguides="false" />
  <metadata
     id="metadata7">
    <rdf:RDF>
      <cc:Work
         rdf:about="">
        <dc:format>image/svg+xml</dc:format>
        <dc:type
           rdf:resource="http://purl.org/dc/dcmitype/StillImage" />
        <dc:title></dc:title>
      </cc:Work>
    </rdf:RDF>
  </metadata>
  <g
     inkscape:label="Layer 1"
     inkscape:groupmode="layer"
     id="layer1"
     transform="translate(0,-988.3622)">
    <g
       transform="translate(0,540.3622)"
       style="display:inline"
       id="g4683">
      <rect
         ry="0"
         y="448"
         x="0"
         height="64"
         width="64"
         id="rect5002-6-53-1"
         style="display:inline;opacity:1;fill:#808080;fill-opacity:0;stroke:none;stroke-width:6.21484947;stroke-linecap:round;stroke-linejoin:round;stroke-miterlimit:4;stroke-dasharray:none;stroke-dashoffset:0;stroke-opacity:1" />
      <g
         transform="matrix(0.96637635,0,0,0.96637635,-244.44904,295.06037)"
         id="g5291">
        <g
           style="display:inline"
           id="glove-right"
           transform="matrix(-0.98067961,-0.19562082,-0.19562082,0.98067961,103.50123,-146.94383)">
          <path
             sodipodi:nodetypes="ccssccccccccccsccccccc"
             inkscape:connector-curvature="0"
             id="rect5411"
             d="m -223.25771,283.08276 c 1.39085,2.64782 2.53754,5.40361 3.17432,7.88225 0.6687,2.6276 1.20501,5.3836 1.58008,8.0723 0.37507,2.6887 0.58025,5.31094 0.61719,7.6699 0.0368,2.34922 0.005,4.31556 -0.50977,6.0938 -0.8197,2.1647 -1.32614,3.5418 -2.2207,4.918 -0.89456,1.3761 -2.17723,2.7512 -4.55664,4.916 -0.81821,0.7801 -1.5869,1.2716 -2.36524,1.6347 -0.51045,-1.58018 -3.38939,-4.55373 -5.54603,-4.02591 0.37126,-0.8968 0.33778,-1.25689 0.39955,-2.15379 0.0618,-0.8968 0.0402,-1.7946 0.0781,-2.6914 0.0369,-1.2949 -0.056,-2.769 -0.26367,-4.1113 -0.20769,-1.3422 -0.53161,-2.552 -0.95703,-3.3223 -0.21272,-0.3851 -0.45077,-0.661 -0.71289,-0.7871 -0.26213,-0.126 -0.54729,-0.103 -0.85547,0.1075 -0.30818,0.2105 -1.01816,1.49378 -1.36905,2.11818 -0.97577,2.43529 -2.86506,-1.6471 -7.6485,0.61422 0.39376,-2.7688 0.99996,-5.5738 2.08399,-10.5215 0.51192,-1.1182 0.97647,-3.079 1.82031,-5.2539 0.42192,-1.0875 0.93869,-2.2284 1.60352,-3.3438 0.66483,-1.1153 1.73037,-2.58451 2.74472,-3.57021 4.09137,0.2532 9.06211,-1.35479 12.90321,-4.24564 z"
             style="display:inline;opacity:1;fill:#000000;fill-opacity:1;stroke:#000000;stroke-width:1.70000005;stroke-linecap:round;stroke-linejoin:round;stroke-miterlimit:4;stroke-dasharray:none;stroke-dashoffset:0;stroke-opacity:1" />
          <path
             sodipodi:nodetypes="ccccc"
             inkscape:connector-curvature="0"
             id="path5431"
             d="m -217.62474,306.05516 c 0,0 -15.43593,-5.64506 -15.7205,-3.28301 0.42091,2.35703 -0.0524,3.81985 -0.25254,5.55584 5.49271,0.36805 9.78585,1.65244 14.77348,5.24016 0.9678,-0.14923 1.4681,-4.19323 1.19956,-7.51299 z"
             style="fill:#ffffff;fill-opacity:1;fill-rule:evenodd;stroke:#000000;stroke-width:1px;stroke-linecap:butt;stroke-linejoin:miter;stroke-opacity:1" />
        </g>
        <g
           style="display:inline"
           id="glove-left"
           transform="matrix(0.83496155,-0.5503083,0.5503083,0.83496155,324.19751,-194.59132)">
          <path
             sodipodi:nodetypes="ccssccccccccccsccccccc"
             inkscape:connector-curvature="0"
             id="rect5411-0"
             d="m -223.25771,283.08276 c 1.39085,2.64782 2.53754,5.40361 3.17432,7.88225 0.6687,2.6276 1.20501,5.3836 1.58008,8.0723 0.37507,2.6887 0.58025,5.31094 0.61719,7.6699 0.0368,2.34922 0.005,4.31556 -0.50977,6.0938 -0.8197,2.1647 -1.32614,3.5418 -2.2207,4.918 -0.89456,1.3761 -2.17723,2.7512 -4.55664,4.916 -0.81821,0.7801 -1.5869,1.2716 -2.36524,1.6347 -0.51045,-1.58018 -3.38939,-4.55373 -5.54603,-4.02591 0.37126,-0.8968 0.33778,-1.25689 0.39955,-2.15379 0.0618,-0.8968 0.0402,-1.7946 0.0781,-2.6914 0.0369,-1.2949 -0.056,-2.769 -0.26367,-4.1113 -0.20769,-1.3422 -0.53161,-2.552 -0.95703,-3.3223 -0.21272,-0.3851 -0.45077,-0.661 -0.71289,-0.7871 -0.26213,-0.126 -0.54729,-0.103 -0.85547,0.1075 -0.30818,0.2105 -1.01816,1.49378 -1.36905,2.11818 -0.97577,2.43529 -2.86506,-1.6471 -7.6485,0.61422 0.39376,-2.7688 0.99996,-5.5738 2.08399,-10.5215 0.51192,-1.1182 0.97647,-3.079 1.82031,-5.2539 0.42192,-1.0875 0.93869,-2.2284 1.60352,-3.3438 0.66483,-1.1153 1.73037,-2.58451 2.74472,-3.57021 4.09137,0.2532 9.06211,-1.35479 12.90321,-4.24564 z"
             style="display:inline;opacity:1;fill:#000000;fill-opacity:1;stroke:#000000;stroke-width:1.70000005;stroke-linecap:round;stroke-linejoin:round;stroke-miterlimit:4;stroke-dasharray:none;stroke-dashoffset:0;stroke-opacity:1" />
          <path
             sodipodi:nodetypes="ccccc"
             inkscape:connector-curvature="0"
             id="path5431-1"
             d="m -217.62474,306.05516 c 0,0 -15.43593,-5.64506 -15.7205,-3.28301 0.42091,2.35703 -0.0524,3.81985 -0.25254,5.55584 5.49271,0.36805 9.78585,1.65244 14.77348,5.24016 0.9678,-0.14923 1.4681,-4.19323 1.19956,-7.51299 z"
             style="fill:#ffffff;fill-opacity:1;fill-rule:evenodd;stroke:#000000;stroke-width:1px;stroke-linecap:butt;stroke-linejoin:miter;stroke-opacity:1" />
        </g>
      </g>
    </g>
  </g>
</svg>
