<?xml version="1.0" encoding="UTF-8" standalone="no"?>
<!-- Created with Inkscape (http://www.inkscape.org/) -->

<svg
   xmlns:dc="http://purl.org/dc/elements/1.1/"
   xmlns:cc="http://creativecommons.org/ns#"
   xmlns:rdf="http://www.w3.org/1999/02/22-rdf-syntax-ns#"
   xmlns:svg="http://www.w3.org/2000/svg"
   xmlns="http://www.w3.org/2000/svg"
   xmlns:sodipodi="http://sodipodi.sourceforge.net/DTD/sodipodi-0.dtd"
   xmlns:inkscape="http://www.inkscape.org/namespaces/inkscape"
   width="64"
   height="64"
   viewBox="0 0 63.999999 63.999999"
   id="svg2"
   version="1.1"
   inkscape:version="0.91 r13725"
   sodipodi:docname="helmet.svg">
  <defs
     id="defs4">
    <pattern
       y="0"
       x="0"
       height="6"
       width="6"
       patternUnits="userSpaceOnUse"
       id="EMFhbasepattern" />
    <pattern
       y="0"
       x="0"
       height="6"
       width="6"
       patternUnits="userSpaceOnUse"
       id="EMFhbasepattern-0" />
  </defs>
  <sodipodi:namedview
     id="base"
     pagecolor="#ffffff"
     bordercolor="#666666"
     borderopacity="1.0"
     inkscape:pageopacity="0.0"
     inkscape:pageshadow="2"
     inkscape:zoom="2.8"
     inkscape:cx="55.658902"
     inkscape:cy="55.215806"
     inkscape:document-units="px"
     inkscape:current-layer="layer1"
     showgrid="false"
     units="px"
     inkscape:window-width="1440"
     inkscape:window-height="837"
     inkscape:window-x="-8"
     inkscape:window-y="-8"
     inkscape:window-maximized="1"
     showguides="false" />
  <metadata
     id="metadata7">
    <rdf:RDF>
      <cc:Work
         rdf:about="">
        <dc:format>image/svg+xml</dc:format>
        <dc:type
           rdf:resource="http://purl.org/dc/dcmitype/StillImage" />
        <dc:title></dc:title>
      </cc:Work>
    </rdf:RDF>
  </metadata>
  <g
     inkscape:label="Layer 1"
     inkscape:groupmode="layer"
     id="layer1"
     transform="translate(0,-988.3622)">
    <g
       transform="translate(-192,604.3622)"
       style="display:inline"
       id="g4620">
      <rect
         ry="0"
         y="384"
         x="192"
         height="64"
         width="64"
         id="rect5002-6-5"
         style="display:inline;opacity:1;fill:#808080;fill-opacity:0;stroke:none;stroke-width:6.21484947;stroke-linecap:round;stroke-linejoin:round;stroke-miterlimit:4;stroke-dasharray:none;stroke-dashoffset:0;stroke-opacity:1" />
      <rect
         ry="0"
         y="384"
         x="192.00002"
         height="64"
         width="64"
         id="rect5002-6-5-0"
         style="display:inline;opacity:1;fill:#808080;fill-opacity:0;stroke:none;stroke-width:6.21484947;stroke-linecap:round;stroke-linejoin:round;stroke-miterlimit:4;stroke-dasharray:none;stroke-dashoffset:0;stroke-opacity:1" />
      <g
         style="display:inline;opacity:1;fill:#000000;fill-opacity:1;stroke:#ffffff;stroke-opacity:1"
         id="helmet"
         transform="matrix(0.50916346,0,0,0.50916346,158.67127,378.71409)">
        <path
           class="colorable"
           transform="matrix(1.1780671,0,0,1.0951467,116.96719,-72.585571)"
           sodipodi:nodetypes="cccsscccsscscccccccccccccccccccccccccccscccs"
           inkscape:connector-curvature="0"
           id="path4485-9"
           d="m 9.0567739,95.088287 c -4.34117,1.19336 -8.29720995,2.29479 -11.0293,4.88086 -0.93655,0.921083 -3.09816,1.784963 -4.25781,1.697263 -7.0996699,-0.53726 -12.9944199,2.48077 -15.4628899,8.03711 -0.40712,0.91638 -1.12048,2.53013 -2.0586,2.76758 -16.24559,4.11194 -14.01471,30.63417 -14.10351,33.95312 27.31944,1.36685 22.87104,6.46437 48.29687,3.13477 23.27574,2.8201 19.68792,-2.06929 46.29297,-3.40039 -0.0888,-3.31895 2.14207,-29.83923 -14.10352,-33.95117 -0.93812,-0.23745 -1.65342,-1.8512 -2.06054,-2.76758 -2.46848,-5.55634 -8.36322,-8.57437 -15.46289,-8.03711 -1.15965,0.0877 -3.32127,-0.77814 -4.25782,-1.699223 -2.66555,-2.62152 -7.45669,-3.792 -11.7929601,-4.61523 z m -0.21876,2.62304 c 4.0381301,1.07511 4.5086101,3.347383 4.6718801,5.429693 -2.59297,4.39948 -9.6918001,3.3557 -10.1015601,-0.37891 0.91353,-3.042903 1.74963,-4.143053 5.42968,-5.050783 z m 17.4277401,10.199223 3.97461,0.88672 c 2.96907,13.57992 -12.16992,23.82422 -12.16992,23.82422 -2.93816,-0.44335 2.81559,-7.69495 5.84375,-22.6543 0,0 2.66422,0.82526 2.35156,-2.05664 z m -36.74609,0.53321 c -0.5854,2.83909 2.1464799,2.27343 2.1464799,2.27343 1.59131,15.17958 6.62912,22.9456 3.66211,23.10742 0,0 -14.0970999,-11.63912 -9.8496099,-24.875 z m 14.4277299,4.69335 c 0.2477,0.0125 0.52945,0.0461 0.86523,0.0937 2.27742,0.87663 4.1854,0.49108 4.47461,0.15625 2.4744501,-0.14899 3.3925801,0.89454 3.3925801,0.89454 -1.78571,6.42443 -3.5717101,16.18949 -5.3574201,18.39257 -3.47643,2.72581 -5.96478,-12.33473 -5.17773,-18.92968 0.62913,-0.49727 1.05963,-0.64503 1.80273,-0.60743 z m -27.3398399,0.60743 c -0.50081,7.07245 0.96258,11.60774 1.78711,17.32226 -2.76229,-0.6128 -10.83944,-11.52003 -5.53711,-15.17969 z m 66.54687,0.21484 c 1.47783,0.12875 2.98242,1.00781 2.98242,1.00781 4.2795,4.81598 -7.04232,14.75136 -9.87109,14.68946 2.1603,-5.35432 4.2805,-8.52708 5.47656,-15.51563 0.42964,-0.18454 0.9195,-0.22456 1.41211,-0.18164 z"
           style="opacity:1;fill:#000000;fill-opacity:1;fill-rule:evenodd;stroke:#ffffff;stroke-width:0.5;stroke-linecap:butt;stroke-linejoin:miter;stroke-miterlimit:4;stroke-dasharray:none;stroke-opacity:1" />
        <path
           transform="matrix(1.1780671,0,0,1.0951467,116.96719,-72.585571)"
           sodipodi:nodetypes="ccccssccc"
           inkscape:connector-curvature="0"
           id="path4481-1"
           d="m -31.567266,158.19407 c 18.54086,-7.99288 62.0221,-8.36465 81.56982,-1.01015 3.72542,-2.90361 5.54086,-6.3849 6.90518,-12.12183 -5.64002,-2.68813 -9.85146,-3.16461 -15.49148,-4.04061 -6.99719,1.10145 -14.98054,0.71603 -20.52793,2.28435 -9.26938,2.62057 -19.5644601,1.80155 -27.6941601,0.42721 -6.2446599,-1.05568 -12.1788299,-0.52242 -18.1954399,-0.94379 -4.35901,-0.1986 -9.90848,0.76842 -12.87945,3.67603 1.77066,5.91256 4.08894,8.53941 6.31346,11.72879 z"
           style="opacity:1;fill:#000000;fill-opacity:1;fill-rule:evenodd;stroke:#ffffff;stroke-width:0.5;stroke-linecap:butt;stroke-linejoin:miter;stroke-miterlimit:4;stroke-dasharray:none;stroke-opacity:1" />
        <path
           style="opacity:1;fill:#000000;fill-opacity:1;stroke:#ffffff;stroke-width:0.1;stroke-linecap:round;stroke-linejoin:round;stroke-miterlimit:4;stroke-dasharray:none;stroke-dashoffset:0;stroke-opacity:1"
           d="m 110.58243,67.179398 c -2.35467,-6.301187 -3.56207,-10.886067 -4.21188,-15.993819 -0.081,-0.636655 -0.16677,-1.18911 -0.1906,-1.227679 -0.0238,-0.03857 -0.21754,-0.07013 -0.43045,-0.07013 -0.5641,0 -1.52239,-0.323749 -1.8752,-0.633517 -0.38049,-0.334079 -0.5258,-0.751971 -0.44615,-1.283097 l 0.0607,-0.404814 -0.29793,0 c -0.16385,0 -0.95425,0.04452 -1.75643,0.09894 -0.80219,0.05442 -1.480256,0.0772 -1.506828,0.05063 -0.02657,-0.02657 -0.001,-0.191648 0.05681,-0.366835 0.125188,-0.379325 0.0088,-0.348233 2.189458,-0.585085 0.93304,-0.101343 1.77679,-0.201254 1.875,-0.222024 0.16325,-0.03452 0.17951,0.01183 0.18945,0.540222 0.0214,1.136719 0.75399,1.82727 2.01408,1.898471 0.33493,0.01893 0.60897,0.05268 0.60897,0.075 0,0.262118 0.61735,4.28288 0.84654,5.513525 0.75528,4.055343 1.4784,6.922714 3.1381,12.443343 0.41777,1.3896 0.74457,2.571555 0.72623,2.626568 -0.0183,0.05501 -0.46378,-1.051852 -0.98987,-2.459702 z"
           id="path4771"
           inkscape:connector-curvature="0" />
        <path
           style="opacity:1;fill:#000000;fill-opacity:1;stroke:#ffffff;stroke-width:0.1;stroke-linecap:round;stroke-linejoin:round;stroke-miterlimit:4;stroke-dasharray:none;stroke-dashoffset:0;stroke-opacity:1"
           d="m 90.847802,70.35549 c -0.02311,-0.0374 -0.129522,-0.549677 -0.236461,-1.138393 -0.10694,-0.588716 -0.353921,-1.773518 -0.548849,-2.632893 -0.857504,-3.780473 -0.968461,-4.298939 -1.136924,-5.3125 -0.338895,-2.038965 -0.397711,-2.778026 -0.405014,-5.089286 -0.0072,-2.29038 -0.0099,-2.321788 -0.195553,-2.348299 -0.103519,-0.01478 -0.987448,0.345919 -1.964286,0.801551 -1.513033,0.705732 -1.84549,0.897279 -2.244818,1.293368 -0.257813,0.255722 -0.46875,0.424154 -0.46875,0.374295 0,-0.219738 0.692187,-1.103026 1.107305,-1.413012 0.388854,-0.290374 4.104963,-2.324355 4.245559,-2.323771 0.02691,1.11e-4 0.05101,1.275781 0.05355,2.834821 0.0062,3.781957 0.155323,5.030248 1.328606,11.120127 0.674078,3.498776 0.736407,3.901992 0.603177,3.901992 -0.05254,0 -0.114431,-0.0306 -0.137546,-0.068 z"
           id="path4773-4"
           inkscape:connector-curvature="0" />
        <path
           style="opacity:1;fill:#000000;fill-opacity:1;stroke:#ffffff;stroke-width:0.1;stroke-linecap:round;stroke-linejoin:round;stroke-miterlimit:4;stroke-dasharray:none;stroke-dashoffset:0;stroke-opacity:1"
           d="m 128.02215,65.533203 c 0,-0.05424 0.14255,-0.713838 0.31679,-1.465773 0.17424,-0.751935 0.65846,-2.873851 1.07605,-4.715369 0.41759,-1.841518 0.89266,-3.877987 1.05571,-4.525487 l 0.29646,-1.177274 -0.23411,-0.214766 c -0.58137,-0.533321 -1.3519,-0.817122 -2.48746,-0.916178 -0.6245,-0.05448 -0.753,-0.03819 -1.14471,0.145069 -0.36837,0.172345 -0.58867,0.206537 -1.33409,0.207063 -0.74588,5.26e-4 -1.06083,-0.0479 -1.91327,-0.294192 -0.86378,-0.249567 -1.13212,-0.290089 -1.74821,-0.263992 -0.62444,0.02645 -0.79019,0.06937 -1.16709,0.302236 -0.71242,0.440158 -0.70773,0.416676 -0.70297,3.523235 0.004,2.806886 0.12554,4.556376 0.48574,7.008929 0.0938,0.638393 0.19259,1.341518 0.21962,1.5625 0.1112,0.908942 -0.13091,-0.169095 -0.39038,-1.738241 -0.52879,-3.197884 -0.77713,-6.401888 -0.68534,-8.842116 0.073,-1.93977 0.0875,-1.991463 0.63771,-2.274474 0.60068,-0.308946 1.70812,-0.298433 2.81729,0.02674 1.58839,0.465672 3.56155,0.546638 4.45583,0.182838 0.47671,-0.193929 1.65636,-0.211881 2.4145,-0.03674 0.59822,0.138195 1.51407,0.532033 1.51407,0.65109 0,0.04816 -0.21788,0.87638 -0.48418,1.840485 -0.2663,0.964105 -0.79146,2.938186 -1.16702,4.386846 -0.94059,3.628149 -1.74951,6.644432 -1.79389,6.688989 -0.0204,0.02046 -0.037,-0.0072 -0.037,-0.06142 z"
           id="path4775-1"
           inkscape:connector-curvature="0" />
        <path
           style="opacity:1;fill:#000000;fill-opacity:1;stroke:#ffffff;stroke-width:0.1;stroke-linecap:round;stroke-linejoin:round;stroke-miterlimit:4;stroke-dasharray:none;stroke-dashoffset:0;stroke-opacity:1"
           d="m 121.40908,40.40148 c -0.12552,-0.466141 0.009,-0.953926 0.6079,-2.210118 0.83318,-1.746577 2.14935,-2.647438 4.87672,-3.337909 0.51167,-0.129537 0.54124,-0.126638 1.32672,0.130047 2.63691,0.861701 3.83984,2.152058 4.22837,4.535671 0.10587,0.649465 0.10461,0.772061 -0.01,0.935045 -0.12921,0.184468 -0.13139,0.183485 -0.13139,-0.05927 0,-0.53149 -0.29506,-1.654377 -0.59625,-2.269107 -0.59968,-1.223957 -1.88952,-2.17252 -3.68511,-2.710064 -0.60263,-0.180409 -0.71542,-0.188812 -1.19761,-0.08922 -0.77933,0.160968 -2.14986,0.670391 -2.71239,1.008188 -0.74275,0.446019 -1.38223,1.136713 -1.80525,1.94981 -0.49316,0.947914 -0.79322,1.843248 -0.73978,2.207381 0.0607,0.413534 -0.0421,0.356274 -0.16239,-0.09046 z"
           id="path4777"
           inkscape:connector-curvature="0" />
        <path
           style="opacity:1;fill:#000000;fill-opacity:1;stroke:#ffffff;stroke-width:0.1;stroke-linecap:round;stroke-linejoin:round;stroke-miterlimit:4;stroke-dasharray:none;stroke-dashoffset:0;stroke-opacity:1"
           d="m 138.04058,69.700477 c 0,-0.07028 0.38475,-1.071392 0.85501,-2.224703 2.79212,-6.847701 3.53682,-8.813768 4.50425,-11.891598 0.60772,-1.933458 1.36285,-4.665782 1.73469,-6.276758 l 0.2473,-1.071428 0.68444,0 c 0.55878,0 0.76581,-0.04188 1.12766,-0.228094 0.62443,-0.321341 0.958,-0.822674 1.00808,-1.515067 0.0322,-0.44492 0.0643,-0.531471 0.18431,-0.497048 0.0799,0.02293 0.98908,0.212088 2.02033,0.420361 1.03125,0.208274 1.88284,0.38266 1.89243,0.387526 0.01,0.0049 0.0561,0.18083 0.1033,0.391032 l 0.0859,0.382186 -0.28187,-0.0575 c -0.15503,-0.03163 -0.64857,-0.172883 -1.09676,-0.313902 -0.78598,-0.247302 -2.13901,-0.476222 -2.28423,-0.38647 -0.0388,0.02397 -0.0705,0.195613 -0.0705,0.38142 0,0.862395 -0.79999,1.647993 -2.07959,2.042185 -0.67541,0.208063 -0.79194,0.273074 -0.83498,0.465807 -0.98429,4.407389 -2.49153,8.850631 -4.49796,13.25971 -0.62335,1.369797 -3.1936,6.732183 -3.2703,6.822917 -0.0173,0.02046 -0.0315,-0.0203 -0.0315,-0.09057 z"
           id="path4779-8"
           inkscape:connector-curvature="0" />
        <path
           style="opacity:1;fill:#000000;fill-opacity:1;stroke:#ffffff;stroke-width:0.1;stroke-linecap:round;stroke-linejoin:round;stroke-miterlimit:4;stroke-dasharray:none;stroke-dashoffset:0;stroke-opacity:1"
           d="m 160.80844,67.712816 c 0,-0.01766 0.53738,-1.153481 1.19419,-2.524055 2.36719,-4.939652 3.26865,-7.34492 4.02799,-10.747414 0.18083,-0.810268 0.36322,-1.560437 0.40531,-1.667041 0.22178,-0.561721 2.71478,-0.19978 4.35746,0.632629 0.35859,0.181713 0.72933,0.542536 0.72933,0.709823 0,0.02136 -0.2712,-0.05465 -0.60268,-0.168916 -0.33147,-0.114264 -0.9241,-0.275558 -1.31696,-0.35843 -0.8475,-0.178777 -2.47355,-0.211081 -2.66411,-0.05293 -0.0709,0.05887 -0.1567,0.291925 -0.19059,0.517891 -0.0886,0.59098 -0.61718,2.698719 -0.92548,3.690541 -0.92567,2.97795 -2.24609,5.740172 -4.27878,8.950893 -0.58884,0.930091 -0.73568,1.133095 -0.73568,1.017005 z"
           id="path4781-1"
           inkscape:connector-curvature="0" />
      </g>
    </g>
  </g>
</svg>
