<?xml version="1.0" encoding="UTF-8" standalone="no"?>
<!-- Created with Inkscape (http://www.inkscape.org/) -->

<svg
   xmlns:dc="http://purl.org/dc/elements/1.1/"
   xmlns:cc="http://creativecommons.org/ns#"
   xmlns:rdf="http://www.w3.org/1999/02/22-rdf-syntax-ns#"
   xmlns:svg="http://www.w3.org/2000/svg"
   xmlns="http://www.w3.org/2000/svg"
   xmlns:sodipodi="http://sodipodi.sourceforge.net/DTD/sodipodi-0.dtd"
   xmlns:inkscape="http://www.inkscape.org/namespaces/inkscape"
   width="92"
   height="92"
   viewBox="0 0 92 92"
   id="svg4471"
   version="1.1"
   inkscape:version="0.91 r13725"
   sodipodi:docname="professional-shoes.svg">
   <title
     id="title4135">Pedal-to-Play Professional Shoes Thumb</title>
  <defs
     id="defs4473" />
  <sodipodi:namedview
     id="base"
     pagecolor="#ffffff"
     bordercolor="#666666"
     borderopacity="1.0"
     inkscape:pageopacity="0.0"
     inkscape:pageshadow="2"
     inkscape:zoom="1.979899"
     inkscape:cx="170.03896"
     inkscape:cy="87.235235"
     inkscape:document-units="px"
     inkscape:current-layer="g5293"
     showgrid="false"
     units="px"
     inkscape:window-width="1440"
     inkscape:window-height="837"
     inkscape:window-x="-8"
     inkscape:window-y="-8"
     inkscape:window-maximized="1" />
  <metadata
     id="metadata4476">
    <rdf:RDF>
      <cc:Work
         rdf:about="">
        <dc:format>image/svg+xml</dc:format>
        <dc:type
           rdf:resource="http://purl.org/dc/dcmitype/StillImage" />
        <dc:title>Pedal-to-Play Professional Shoes Thumb</dc:title>
        <cc:license
           rdf:resource="http://creativecommons.org/licenses/by-sa/3.0/" />
        <dc:date>08/11/2015</dc:date>
        <dc:rights>
          <cc:Agent>
            <dc:title>Kael Vieira de Oliveira Fraga e IFRS-Campus Canoas</dc:title>
          </cc:Agent>
        </dc:rights>
        <dc:creator>
          <cc:Agent>
            <dc:title>Kael Vieira de Oliveira Fraga</dc:title>
          </cc:Agent>
        </dc:creator>
      </cc:Work>
      <cc:License
         rdf:about="http://creativecommons.org/licenses/by-sa/3.0/">
        <cc:permits
           rdf:resource="http://creativecommons.org/ns#Reproduction" />
        <cc:permits
           rdf:resource="http://creativecommons.org/ns#Distribution" />
        <cc:requires
           rdf:resource="http://creativecommons.org/ns#Notice" />
        <cc:requires
           rdf:resource="http://creativecommons.org/ns#Attribution" />
        <cc:permits
           rdf:resource="http://creativecommons.org/ns#DerivativeWorks" />
        <cc:requires
           rdf:resource="http://creativecommons.org/ns#ShareAlike" />
      </cc:License>
    </rdf:RDF>
  </metadata> 
  <g
     inkscape:label="Layer 1"
     inkscape:groupmode="layer"
     id="layer1"
     transform="translate(0,-960.36216)">
    <g
       id="g5293"
       transform="translate(-1.0101525,-7.5761441)">
      <g
         id="shoe-right"
         transform="matrix(1.0648582,0,0,1.0648582,378.30536,471.08803)">
        <g
           id="g5219-0-71"
           style="display:inline;stroke-width:1.70000005;stroke-miterlimit:4;stroke-dasharray:none"
           transform="matrix(1.1735929,0,0,1.0322187,-424.99779,-2270.1577)">
          <path
             sodipodi:nodetypes="ccccc"
             inkscape:connector-curvature="0"
             id="path3951-3-7"
             d="m 81.27234,2664.5405 c 0,0 -1.074589,5.9365 -2.040112,6.9531 10.483599,-2.9855 19.186871,2.5045 19.186871,2.5045 -0.511762,-3.8363 -1.755461,-5.3663 -1.830129,-8.2002 -6.135702,0.4967 -12.834963,1.0114 -15.31663,-1.2574 z"
             style="fill:#ffffff;fill-opacity:1;stroke:#000000;stroke-width:1.42443109;stroke-linecap:butt;stroke-linejoin:miter;stroke-miterlimit:4;stroke-dasharray:none;stroke-opacity:1" />
          <path
             sodipodi:nodetypes="csccccccc"
             inkscape:connector-curvature="0"
             id="path5142-7-8"
             d="m 64.828072,2708.1169 c -0.642591,-4.4584 1.698098,-8.2716 3.848486,-12.0929 5.932337,-10.542 4.451304,-17.1038 9.864722,-24.4765 7.484003,-7.216 15.725526,-0.5591 19.593584,2.3272 3.978736,3.9788 5.193276,20.5896 0.438112,23.7985 -3.738193,0.5225 -3.612684,2.9767 -3.802933,5.2729 0.998023,4.4872 -3.234405,9.7154 -3.084172,9.1145 0,0 -8.9815,6.3784 -17.619242,4.1314 -2.006692,-0.4565 -8.292996,-2.122 -9.238557,-8.0751 z"
             style="display:inline;fill:#ffffff;fill-opacity:1;fill-rule:evenodd;stroke:#000000;stroke-width:1.70000005;stroke-linecap:butt;stroke-linejoin:miter;stroke-miterlimit:4;stroke-dasharray:none;stroke-opacity:1"
             class="colorable" />
        </g>
        <path
           style="fill:#673ab7;fill-opacity:1;fill-rule:evenodd;stroke:#000000;stroke-width:1px;stroke-linecap:butt;stroke-linejoin:miter;stroke-opacity:1"
           d="m -343.95694,511.49492 c 6.13309,-1.61928 11.5965,-2.40165 21.95813,1.97698 0.72423,0.99474 0.36849,2.76245 -0.50508,5.28798 -11.43576,-4.6892 -14.42838,-4.37928 -24.23097,-2.21419 z"
           id="path5835-41"
           inkscape:connector-curvature="0"
           sodipodi:nodetypes="ccccc" />
        <path
           style="fill:#673ab7;fill-opacity:1;fill-rule:evenodd;stroke:#000000;stroke-width:1.0381465px;stroke-linecap:butt;stroke-linejoin:miter;stroke-opacity:1"
           d="m -338.15407,500.36229 c 6.36704,-1.68105 13.05847,-2.52392 21.49807,2.11443 1.14297,1.71839 -0.55502,5.37365 -0.55502,5.37365 -6.80612,-2.77117 -13.65045,-4.49232 -23.82697,-2.24464 z"
           id="path5835-4-89"
           inkscape:connector-curvature="0"
           sodipodi:nodetypes="ccccc" />
        <path
           style="fill:#000000;fill-opacity:1;fill-rule:evenodd;stroke:#000000;stroke-width:1.22286618px;stroke-linecap:butt;stroke-linejoin:miter;stroke-opacity:1"
           d="m -334.33926,489.3905 c 4.87025,-6.60476 14.19084,-8.24415 26.1516,2.31333 2.61895,3.2107 3.89425,15.96333 1.6206,14.30977 -2.66368,-4.16267 -7.64648,-11.66895 -12.40747,-13.02774 -3.49333,-0.997 -5.4273,-1.08507 -9.90229,-0.75851 -2.32618,0.16974 -7.17266,2.99215 -8.58105,3.89109 z"
           id="path5835-4-3-67"
           inkscape:connector-curvature="0"
           sodipodi:nodetypes="cccsscc" />
        <path
           style="fill:#673ab7;fill-opacity:1;fill-rule:evenodd;stroke:#2c2c2c;stroke-width:0.84759533px;stroke-linecap:butt;stroke-linejoin:round;stroke-opacity:1"
           d="m -331.16283,492.18549 c 0.0286,-1.80853 0.31946,-4.23108 1.24782,-5.85989 1.8526,-2.15309 8.3551,-2.00588 13.50519,0.0934 -1.77861,2.06026 -1.16044,6.10117 -1.16044,6.10117 -3.34053,-0.81833 -10.28009,-1.84841 -13.59257,-0.33466 z"
           id="path5886-9"
           inkscape:connector-curvature="0"
           sodipodi:nodetypes="cccccc" />
        <path
           style="fill:none;fill-opacity:1;fill-rule:evenodd;stroke:#000000;stroke-width:1px;stroke-linecap:butt;stroke-linejoin:miter;stroke-opacity:1"
           d="m -347.85714,527.71429 c 1.36197,0.21229 2.3942,0.43036 4.50191,0.0822 1.23963,-0.20477 6.00627,-3.49991 15.215,1.45095 3.01364,1.62021 6.40554,0.92139 8.14023,0.96686"
           id="path5903-7"
           inkscape:connector-curvature="0"
           sodipodi:nodetypes="cssc" />
        <path
           style="fill:#000000;fill-opacity:1;fill-rule:evenodd;stroke:#000000;stroke-width:1px;stroke-linecap:round;stroke-linejoin:round;stroke-opacity:1"
           d="m -314.01786,521.10714 c -1.23034,-1.17418 -0.78041,-5.90212 0.0893,-6.25 0.87576,-0.90995 3.46986,-2.15514 5,-0.89285 -4.99864,0.33124 -4.71747,3.80418 -5.0893,7.14285 z"
           id="path5905-6"
           inkscape:connector-curvature="0"
           sodipodi:nodetypes="cccc" />
        <path
           style="fill:none;fill-rule:evenodd;stroke:#000000;stroke-width:1px;stroke-linecap:butt;stroke-linejoin:miter;stroke-opacity:1"
           d="m -348.21429,520.57143 c 14.2222,-7.93183 22.60916,3.80558 33.66071,1.78571"
           id="path5909-7"
           inkscape:connector-curvature="0"
           sodipodi:nodetypes="cc" />
        <path
           style="opacity:1;fill:#000000;fill-opacity:1;stroke:#000000;stroke-width:1;stroke-linecap:round;stroke-linejoin:round;stroke-miterlimit:4;stroke-dasharray:none;stroke-dashoffset:0;stroke-opacity:1"
           d="m -335.81772,533.00794 c -2.11599,-0.26813 -4.92891,-1.0267 -6.61886,-1.78493 -1.06862,-0.47945 -2.72329,-1.58081 -3.35524,-2.23326 l -0.48546,-0.50121 1.43247,-0.0525 c 1.25692,-0.046 1.62592,-0.11616 3.01084,-0.57213 1.94947,-0.64185 3.3031,-0.8481 4.97435,-0.75793 2.45116,0.13225 4.73874,0.79509 7.748,2.24503 2.1488,1.03535 3.25862,1.36145 5.00541,1.47079 l 1.24965,0.0782 -0.99711,0.36878 c -1.47529,0.54565 -3.95816,1.20849 -5.60593,1.4966 -1.64183,0.28706 -4.9967,0.41502 -6.35812,0.24251 z"
           id="path5911-1"
           inkscape:connector-curvature="0" />
      </g>
      <g
         id="shoe-left"
         transform="matrix(-1.0647132,0.01756994,0.01756994,1.0647132,-291.16009,488.05745)">
        <g
           id="g5219-0-7"
           style="display:inline;stroke-width:1.70000005;stroke-miterlimit:4;stroke-dasharray:none"
           transform="matrix(1.1735929,0,0,1.0322187,-424.99779,-2270.1577)">
          <path
             sodipodi:nodetypes="ccccc"
             inkscape:connector-curvature="0"
             id="path3951-3-2"
             d="m 81.527036,2663.9514 c 0,0 -1.115041,4.4872 -2.054854,5.9749 10.204437,-4.3687 18.675953,3.6649 18.675953,3.6649 -0.498134,-5.6138 -1.735513,-4.7151 -1.808193,-8.862 -3.719177,1.6736 -9.577908,1.3195 -14.812906,-0.7778 z"
             style="fill:#ffffff;fill-opacity:1;stroke:#000000;stroke-width:1.70000005;stroke-linecap:butt;stroke-linejoin:miter;stroke-miterlimit:4;stroke-dasharray:none;stroke-opacity:1" />
          <path
             sodipodi:nodetypes="csccccccc"
             inkscape:connector-curvature="0"
             id="path5142-7-4"
             d="m 64.828072,2708.1169 c -0.642591,-4.4584 1.698098,-8.2716 3.848486,-12.0929 5.932337,-10.542 4.451304,-17.1038 9.864722,-24.4765 7.484003,-7.216 15.725526,-0.5591 19.593584,2.3272 3.978736,3.9788 5.193276,20.5896 0.438112,23.7985 -3.738193,0.5225 -3.612684,2.9767 -3.802933,5.2729 0.998023,4.4872 -3.234405,9.7154 -3.084172,9.1145 0,0 -8.9815,6.3784 -17.619242,4.1314 -2.006692,-0.4565 -8.292996,-2.122 -9.238557,-8.0751 z"
             style="display:inline;fill:#ffffff;fill-opacity:1;fill-rule:evenodd;stroke:#000000;stroke-width:1.70000005;stroke-linecap:butt;stroke-linejoin:miter;stroke-miterlimit:4;stroke-dasharray:none;stroke-opacity:1"
             class="colorable" />
        </g>
        <path
           style="fill:#673ab7;fill-opacity:1;fill-rule:evenodd;stroke:#000000;stroke-width:1px;stroke-linecap:butt;stroke-linejoin:miter;stroke-opacity:1"
           d="m -343.95694,511.49492 c 6.13309,-1.61928 11.5965,-2.40165 21.95813,1.97698 0.72423,0.99474 0.36849,2.76245 -0.50508,5.28798 -11.43576,-4.6892 -14.42838,-4.37928 -24.23097,-2.21419 z"
           id="path5835-9"
           inkscape:connector-curvature="0"
           sodipodi:nodetypes="ccccc" />
        <path
           style="fill:#673ab7;fill-opacity:1;fill-rule:evenodd;stroke:#000000;stroke-width:1.0381465px;stroke-linecap:butt;stroke-linejoin:miter;stroke-opacity:1"
           d="m -338.15407,500.36229 c 6.36704,-1.68105 13.05847,-2.52392 21.49807,2.11443 1.14297,1.71839 -0.55502,5.37365 -0.55502,5.37365 -6.80612,-2.77117 -13.65045,-4.49232 -23.82697,-2.24464 z"
           id="path5835-4-4"
           inkscape:connector-curvature="0"
           sodipodi:nodetypes="ccccc" />
        <path
           style="fill:#000000;fill-opacity:1;fill-rule:evenodd;stroke:#000000;stroke-width:1.22286618px;stroke-linecap:butt;stroke-linejoin:miter;stroke-opacity:1"
           d="m -334.33926,489.3905 c 4.87025,-6.60476 14.19084,-8.24415 26.1516,2.31333 2.61895,3.2107 3.89425,15.96333 1.6206,14.30977 -2.66368,-4.16267 -7.64648,-11.66895 -12.40747,-13.02774 -3.49333,-0.997 -5.4273,-1.08507 -9.90229,-0.75851 -2.32618,0.16974 -7.17266,2.99215 -8.58105,3.89109 z"
           id="path5835-4-3-0"
           inkscape:connector-curvature="0"
           sodipodi:nodetypes="cccsscc" />
        <path
           style="fill:#673ab7;fill-opacity:1;fill-rule:evenodd;stroke:#2c2c2c;stroke-width:0.84759533px;stroke-linecap:butt;stroke-linejoin:round;stroke-opacity:1"
           d="m -331.16283,492.18549 c 0.0286,-1.80853 0.31946,-4.23108 1.24782,-5.85989 1.8526,-2.15309 8.3551,-2.00588 13.50519,0.0934 -1.77861,2.06026 -1.16044,6.10117 -1.16044,6.10117 -3.34053,-0.81833 -10.28009,-1.84841 -13.59257,-0.33466 z"
           id="path5886-0"
           inkscape:connector-curvature="0"
           sodipodi:nodetypes="cccccc" />
        <path
           style="fill:none;fill-opacity:1;fill-rule:evenodd;stroke:#000000;stroke-width:1px;stroke-linecap:butt;stroke-linejoin:miter;stroke-opacity:1"
           d="m -347.85714,527.71429 c 1.36197,0.21229 2.3942,0.43036 4.50191,0.0822 1.23963,-0.20477 6.00627,-3.49991 15.215,1.45095 3.01364,1.62021 6.40554,0.92139 8.14023,0.96686"
           id="path5903-4"
           inkscape:connector-curvature="0"
           sodipodi:nodetypes="cssc" />
        <path
           style="fill:#000000;fill-opacity:1;fill-rule:evenodd;stroke:#000000;stroke-width:1px;stroke-linecap:round;stroke-linejoin:round;stroke-opacity:1"
           d="m -314.01786,521.10714 c -1.23034,-1.17418 -0.78041,-5.90212 0.0893,-6.25 0.87576,-0.90995 3.46986,-2.15514 5,-0.89285 -4.99864,0.33124 -4.71747,3.80418 -5.0893,7.14285 z"
           id="path5905-5"
           inkscape:connector-curvature="0"
           sodipodi:nodetypes="cccc" />
        <path
           style="fill:none;fill-rule:evenodd;stroke:#000000;stroke-width:1px;stroke-linecap:butt;stroke-linejoin:miter;stroke-opacity:1"
           d="m -348.21429,520.57143 c 14.2222,-7.93183 22.60916,3.80558 33.66071,1.78571"
           id="path5909-1"
           inkscape:connector-curvature="0"
           sodipodi:nodetypes="cc" />
        <path
           style="opacity:1;fill:#000000;fill-opacity:1;stroke:#000000;stroke-width:1;stroke-linecap:round;stroke-linejoin:round;stroke-miterlimit:4;stroke-dasharray:none;stroke-dashoffset:0;stroke-opacity:1"
           d="m -335.81772,533.00794 c -2.11599,-0.26813 -4.92891,-1.0267 -6.61886,-1.78493 -1.06862,-0.47945 -2.72329,-1.58081 -3.35524,-2.23326 l -0.48546,-0.50121 1.43247,-0.0525 c 1.25692,-0.046 1.62592,-0.11616 3.01084,-0.57213 1.94947,-0.64185 3.3031,-0.8481 4.97435,-0.75793 2.45116,0.13225 4.73874,0.79509 7.748,2.24503 2.1488,1.03535 3.25862,1.36145 5.00541,1.47079 l 1.24965,0.0782 -0.99711,0.36878 c -1.47529,0.54565 -3.95816,1.20849 -5.60593,1.4966 -1.64183,0.28706 -4.9967,0.41502 -6.35812,0.24251 z"
           id="path5911-7"
           inkscape:connector-curvature="0" />
      </g>
    </g>
  </g>
</svg>
